<mxfile host="app.diagrams.net" modified="2024-03-21T00:49:56.566Z" agent="Mozilla/5.0 (Windows NT 10.0; Win64; x64) AppleWebKit/537.36 (KHTML, like Gecko) Chrome/122.0.0.0 Safari/537.36" etag="MJ00XZuPd55qY4q55eLO" version="24.0.7" type="device">
  <diagram name="Page-1" id="929967ad-93f9-6ef4-fab6-5d389245f69c">
    <mxGraphModel dx="1851" dy="851" grid="1" gridSize="10" guides="1" tooltips="1" connect="1" arrows="1" fold="1" page="1" pageScale="1.5" pageWidth="1169" pageHeight="826" background="none" math="0" shadow="0">
      <root>
        <mxCell id="0" style=";html=1;" />
        <mxCell id="1" style=";html=1;" parent="0" />
        <mxCell id="zqi7WxUzwIYgTqNgiQfA-46" style="edgeStyle=orthogonalEdgeStyle;rounded=0;orthogonalLoop=1;jettySize=auto;html=1;dashed=1;fillColor=#fff2cc;strokeColor=#F44D06;labelBackgroundColor=none;strokeWidth=2;" edge="1" parent="1" source="zqi7WxUzwIYgTqNgiQfA-6" target="zqi7WxUzwIYgTqNgiQfA-18">
          <mxGeometry relative="1" as="geometry">
            <Array as="points">
              <mxPoint x="370" y="580" />
              <mxPoint x="670" y="580" />
              <mxPoint x="670" y="450" />
            </Array>
          </mxGeometry>
        </mxCell>
        <mxCell id="zqi7WxUzwIYgTqNgiQfA-52" style="edgeStyle=orthogonalEdgeStyle;rounded=0;orthogonalLoop=1;jettySize=auto;html=1;fillColor=#fff2cc;strokeColor=#F44D06;labelBackgroundColor=none;strokeWidth=2;" edge="1" parent="1" source="zqi7WxUzwIYgTqNgiQfA-6" target="zqi7WxUzwIYgTqNgiQfA-48">
          <mxGeometry relative="1" as="geometry" />
        </mxCell>
        <mxCell id="zqi7WxUzwIYgTqNgiQfA-72" style="edgeStyle=orthogonalEdgeStyle;rounded=0;orthogonalLoop=1;jettySize=auto;html=1;dashed=1;strokeWidth=2;strokeColor=#F44D06;" edge="1" parent="1" source="zqi7WxUzwIYgTqNgiQfA-6" target="zqi7WxUzwIYgTqNgiQfA-68">
          <mxGeometry relative="1" as="geometry">
            <Array as="points">
              <mxPoint x="360" y="590" />
            </Array>
          </mxGeometry>
        </mxCell>
        <mxCell id="zqi7WxUzwIYgTqNgiQfA-6" value="&lt;span style=&quot;text-align: left;&quot;&gt;&lt;font color=&quot;#555555&quot; face=&quot;Open Sans, sans-serif&quot;&gt;&lt;span style=&quot;font-size: 13px;&quot;&gt;IMercedesBenzFactory&lt;/span&gt;&lt;/font&gt;&lt;/span&gt;" style="swimlane;fontStyle=1;align=center;verticalAlign=top;childLayout=stackLayout;horizontal=1;startSize=26;horizontalStack=0;resizeParent=1;resizeParentMax=0;resizeLast=0;collapsible=1;marginBottom=0;whiteSpace=wrap;html=1;fillColor=#fff2cc;strokeColor=#F44D06;labelBackgroundColor=none;strokeWidth=2;" vertex="1" parent="1">
          <mxGeometry x="270" y="470" width="160" height="78" as="geometry" />
        </mxCell>
        <mxCell id="zqi7WxUzwIYgTqNgiQfA-7" value="+ createBus(): Transport&lt;span style=&quot;white-space: pre;&quot;&gt;&#x9;&lt;/span&gt;" style="text;align=left;verticalAlign=top;spacingLeft=4;spacingRight=4;overflow=hidden;rotatable=0;points=[[0,0.5],[1,0.5]];portConstraint=eastwest;whiteSpace=wrap;html=1;fillColor=#fff2cc;strokeColor=#F44D06;labelBackgroundColor=none;strokeWidth=2;" vertex="1" parent="zqi7WxUzwIYgTqNgiQfA-6">
          <mxGeometry y="26" width="160" height="26" as="geometry" />
        </mxCell>
        <mxCell id="zqi7WxUzwIYgTqNgiQfA-9" value="+ createMetro(): Transport" style="text;align=left;verticalAlign=top;spacingLeft=4;spacingRight=4;overflow=hidden;rotatable=0;points=[[0,0.5],[1,0.5]];portConstraint=eastwest;whiteSpace=wrap;html=1;fillColor=#fff2cc;strokeColor=#F44D06;labelBackgroundColor=none;strokeWidth=2;" vertex="1" parent="zqi7WxUzwIYgTqNgiQfA-6">
          <mxGeometry y="52" width="160" height="26" as="geometry" />
        </mxCell>
        <mxCell id="zqi7WxUzwIYgTqNgiQfA-53" style="edgeStyle=orthogonalEdgeStyle;rounded=0;orthogonalLoop=1;jettySize=auto;html=1;fillColor=#fff2cc;strokeColor=#F44D06;labelBackgroundColor=none;strokeWidth=2;" edge="1" parent="1" source="zqi7WxUzwIYgTqNgiQfA-10" target="zqi7WxUzwIYgTqNgiQfA-48">
          <mxGeometry relative="1" as="geometry" />
        </mxCell>
        <mxCell id="zqi7WxUzwIYgTqNgiQfA-73" style="edgeStyle=orthogonalEdgeStyle;rounded=0;orthogonalLoop=1;jettySize=auto;html=1;dashed=1;strokeWidth=2;strokeColor=#F44D06;" edge="1" parent="1" source="zqi7WxUzwIYgTqNgiQfA-10" target="zqi7WxUzwIYgTqNgiQfA-22">
          <mxGeometry relative="1" as="geometry">
            <Array as="points">
              <mxPoint x="550" y="620" />
              <mxPoint x="940" y="620" />
              <mxPoint x="940" y="446" />
            </Array>
          </mxGeometry>
        </mxCell>
        <mxCell id="zqi7WxUzwIYgTqNgiQfA-74" style="edgeStyle=orthogonalEdgeStyle;rounded=0;orthogonalLoop=1;jettySize=auto;html=1;dashed=1;strokeWidth=2;strokeColor=#F44D06;" edge="1" parent="1" source="zqi7WxUzwIYgTqNgiQfA-10" target="zqi7WxUzwIYgTqNgiQfA-70">
          <mxGeometry relative="1" as="geometry">
            <Array as="points">
              <mxPoint x="540" y="630" />
              <mxPoint x="950" y="630" />
              <mxPoint x="950" y="566" />
            </Array>
          </mxGeometry>
        </mxCell>
        <mxCell id="zqi7WxUzwIYgTqNgiQfA-10" value="&lt;span style=&quot;text-align: left;&quot;&gt;&lt;font color=&quot;#555555&quot; face=&quot;Open Sans, sans-serif&quot;&gt;&lt;span style=&quot;font-size: 13px;&quot;&gt;ISiemensFactory&lt;/span&gt;&lt;/font&gt;&lt;/span&gt;" style="swimlane;fontStyle=1;align=center;verticalAlign=top;childLayout=stackLayout;horizontal=1;startSize=26;horizontalStack=0;resizeParent=1;resizeParentMax=0;resizeLast=0;collapsible=1;marginBottom=0;whiteSpace=wrap;html=1;fillColor=#fff2cc;strokeColor=#F44D06;labelBackgroundColor=none;strokeWidth=2;" vertex="1" parent="1">
          <mxGeometry x="470" y="470" width="160" height="78" as="geometry" />
        </mxCell>
        <mxCell id="zqi7WxUzwIYgTqNgiQfA-11" value="+ createBus(): Transport&lt;span style=&quot;white-space: pre;&quot;&gt;&#x9;&lt;/span&gt;" style="text;align=left;verticalAlign=top;spacingLeft=4;spacingRight=4;overflow=hidden;rotatable=0;points=[[0,0.5],[1,0.5]];portConstraint=eastwest;whiteSpace=wrap;html=1;fillColor=#fff2cc;strokeColor=#F44D06;labelBackgroundColor=none;strokeWidth=2;" vertex="1" parent="zqi7WxUzwIYgTqNgiQfA-10">
          <mxGeometry y="26" width="160" height="26" as="geometry" />
        </mxCell>
        <mxCell id="zqi7WxUzwIYgTqNgiQfA-13" value="+ createMetro(): Transport" style="text;align=left;verticalAlign=top;spacingLeft=4;spacingRight=4;overflow=hidden;rotatable=0;points=[[0,0.5],[1,0.5]];portConstraint=eastwest;whiteSpace=wrap;html=1;fillColor=#fff2cc;strokeColor=#F44D06;labelBackgroundColor=none;strokeWidth=2;" vertex="1" parent="zqi7WxUzwIYgTqNgiQfA-10">
          <mxGeometry y="52" width="160" height="26" as="geometry" />
        </mxCell>
        <mxCell id="zqi7WxUzwIYgTqNgiQfA-58" style="edgeStyle=orthogonalEdgeStyle;rounded=0;orthogonalLoop=1;jettySize=auto;html=1;fillColor=#fff2cc;strokeColor=#F44D06;labelBackgroundColor=none;strokeWidth=2;" edge="1" parent="1" source="zqi7WxUzwIYgTqNgiQfA-18" target="zqi7WxUzwIYgTqNgiQfA-54">
          <mxGeometry relative="1" as="geometry" />
        </mxCell>
        <mxCell id="zqi7WxUzwIYgTqNgiQfA-100" style="edgeStyle=orthogonalEdgeStyle;rounded=0;orthogonalLoop=1;jettySize=auto;html=1;strokeWidth=2;strokeColor=#F44D06;dashed=1;" edge="1" parent="1" source="zqi7WxUzwIYgTqNgiQfA-18" target="zqi7WxUzwIYgTqNgiQfA-87">
          <mxGeometry relative="1" as="geometry">
            <Array as="points">
              <mxPoint x="910" y="446" />
              <mxPoint x="910" y="670" />
              <mxPoint x="710" y="670" />
              <mxPoint x="710" y="836" />
            </Array>
          </mxGeometry>
        </mxCell>
        <mxCell id="zqi7WxUzwIYgTqNgiQfA-18" value="&lt;div style=&quot;text-align: left;&quot;&gt;&lt;span style=&quot;background-color: initial; font-size: 13px;&quot;&gt;&lt;font style=&quot;&quot; face=&quot;Open Sans, sans-serif&quot; color=&quot;#555555&quot;&gt;MercedesBenzBusFactory&lt;/font&gt;&lt;/span&gt;&lt;/div&gt;" style="swimlane;fontStyle=1;align=center;verticalAlign=top;childLayout=stackLayout;horizontal=1;startSize=26;horizontalStack=0;resizeParent=1;resizeParentMax=0;resizeLast=0;collapsible=1;marginBottom=0;whiteSpace=wrap;html=1;fillColor=#fff2cc;strokeColor=#F44D06;labelBackgroundColor=none;strokeWidth=2;" vertex="1" parent="1">
          <mxGeometry x="700" y="420" width="195" height="52" as="geometry" />
        </mxCell>
        <mxCell id="zqi7WxUzwIYgTqNgiQfA-19" value="+ createTransport: Transport" style="text;align=left;verticalAlign=top;spacingLeft=4;spacingRight=4;overflow=hidden;rotatable=0;points=[[0,0.5],[1,0.5]];portConstraint=eastwest;whiteSpace=wrap;html=1;fillColor=#fff2cc;strokeColor=#F44D06;labelBackgroundColor=none;strokeWidth=2;" vertex="1" parent="zqi7WxUzwIYgTqNgiQfA-18">
          <mxGeometry y="26" width="195" height="26" as="geometry" />
        </mxCell>
        <mxCell id="zqi7WxUzwIYgTqNgiQfA-59" style="edgeStyle=orthogonalEdgeStyle;rounded=0;orthogonalLoop=1;jettySize=auto;html=1;fillColor=#fff2cc;strokeColor=#F44D06;labelBackgroundColor=none;strokeWidth=2;" edge="1" parent="1" source="zqi7WxUzwIYgTqNgiQfA-22" target="zqi7WxUzwIYgTqNgiQfA-54">
          <mxGeometry relative="1" as="geometry" />
        </mxCell>
        <mxCell id="zqi7WxUzwIYgTqNgiQfA-102" style="edgeStyle=orthogonalEdgeStyle;rounded=0;orthogonalLoop=1;jettySize=auto;html=1;strokeColor=#F44D06;strokeWidth=2;dashed=1;" edge="1" parent="1" source="zqi7WxUzwIYgTqNgiQfA-22" target="zqi7WxUzwIYgTqNgiQfA-93">
          <mxGeometry relative="1" as="geometry">
            <Array as="points">
              <mxPoint x="1190" y="446" />
              <mxPoint x="1190" y="916" />
            </Array>
          </mxGeometry>
        </mxCell>
        <mxCell id="zqi7WxUzwIYgTqNgiQfA-22" value="&lt;div style=&quot;text-align: left;&quot;&gt;&lt;span style=&quot;background-color: initial; font-size: 13px;&quot;&gt;&lt;font style=&quot;&quot; face=&quot;Open Sans, sans-serif&quot; color=&quot;#555555&quot;&gt;SiemensBusFactory&lt;/font&gt;&lt;/span&gt;&lt;/div&gt;" style="swimlane;fontStyle=1;align=center;verticalAlign=top;childLayout=stackLayout;horizontal=1;startSize=26;horizontalStack=0;resizeParent=1;resizeParentMax=0;resizeLast=0;collapsible=1;marginBottom=0;whiteSpace=wrap;html=1;fillColor=#fff2cc;strokeColor=#F44D06;labelBackgroundColor=none;strokeWidth=2;" vertex="1" parent="1">
          <mxGeometry x="970" y="420" width="190" height="52" as="geometry" />
        </mxCell>
        <mxCell id="zqi7WxUzwIYgTqNgiQfA-23" value="+ createTransport: Transport" style="text;align=left;verticalAlign=top;spacingLeft=4;spacingRight=4;overflow=hidden;rotatable=0;points=[[0,0.5],[1,0.5]];portConstraint=eastwest;whiteSpace=wrap;html=1;fillColor=#fff2cc;strokeColor=#F44D06;labelBackgroundColor=none;strokeWidth=2;" vertex="1" parent="zqi7WxUzwIYgTqNgiQfA-22">
          <mxGeometry y="26" width="190" height="26" as="geometry" />
        </mxCell>
        <mxCell id="zqi7WxUzwIYgTqNgiQfA-48" value="&lt;span style=&quot;color: rgb(85, 85, 85); font-family: &amp;quot;Open Sans&amp;quot;, sans-serif; font-size: 13px; text-align: left;&quot;&gt;TransportationFactory&lt;/span&gt;" style="swimlane;fontStyle=1;align=center;verticalAlign=top;childLayout=stackLayout;horizontal=1;startSize=26;horizontalStack=0;resizeParent=1;resizeParentMax=0;resizeLast=0;collapsible=1;marginBottom=0;whiteSpace=wrap;html=1;fillColor=#fff2cc;strokeColor=#F44D06;labelBackgroundColor=none;strokeWidth=2;" vertex="1" parent="1">
          <mxGeometry x="370" y="334" width="160" height="78" as="geometry" />
        </mxCell>
        <mxCell id="zqi7WxUzwIYgTqNgiQfA-49" value="+ createBus(): Transport&lt;span style=&quot;white-space: pre;&quot;&gt;&#x9;&lt;/span&gt;" style="text;align=left;verticalAlign=top;spacingLeft=4;spacingRight=4;overflow=hidden;rotatable=0;points=[[0,0.5],[1,0.5]];portConstraint=eastwest;whiteSpace=wrap;html=1;fillColor=#fff2cc;strokeColor=#F44D06;labelBackgroundColor=none;strokeWidth=2;" vertex="1" parent="zqi7WxUzwIYgTqNgiQfA-48">
          <mxGeometry y="26" width="160" height="26" as="geometry" />
        </mxCell>
        <mxCell id="zqi7WxUzwIYgTqNgiQfA-51" value="+ createMetro(): Transport" style="text;align=left;verticalAlign=top;spacingLeft=4;spacingRight=4;overflow=hidden;rotatable=0;points=[[0,0.5],[1,0.5]];portConstraint=eastwest;whiteSpace=wrap;html=1;fillColor=#fff2cc;strokeColor=#F44D06;labelBackgroundColor=none;strokeWidth=2;" vertex="1" parent="zqi7WxUzwIYgTqNgiQfA-48">
          <mxGeometry y="52" width="160" height="26" as="geometry" />
        </mxCell>
        <mxCell id="zqi7WxUzwIYgTqNgiQfA-54" value="&lt;span style=&quot;color: rgb(85, 85, 85); font-family: &amp;quot;Open Sans&amp;quot;, sans-serif; font-size: 13px; text-align: left;&quot;&gt;TransportFactory&lt;/span&gt;" style="swimlane;fontStyle=1;align=center;verticalAlign=top;childLayout=stackLayout;horizontal=1;startSize=26;horizontalStack=0;resizeParent=1;resizeParentMax=0;resizeLast=0;collapsible=1;marginBottom=0;whiteSpace=wrap;html=1;fillColor=#fff2cc;strokeColor=#F44D06;labelBackgroundColor=none;strokeWidth=2;" vertex="1" parent="1">
          <mxGeometry x="840" y="318" width="180" height="52" as="geometry" />
        </mxCell>
        <mxCell id="zqi7WxUzwIYgTqNgiQfA-55" value="+ createTransport: Transport" style="text;align=left;verticalAlign=top;spacingLeft=4;spacingRight=4;overflow=hidden;rotatable=0;points=[[0,0.5],[1,0.5]];portConstraint=eastwest;whiteSpace=wrap;html=1;fillColor=#fff2cc;strokeColor=#F44D06;labelBackgroundColor=none;strokeWidth=2;" vertex="1" parent="zqi7WxUzwIYgTqNgiQfA-54">
          <mxGeometry y="26" width="180" height="26" as="geometry" />
        </mxCell>
        <mxCell id="zqi7WxUzwIYgTqNgiQfA-99" style="edgeStyle=orthogonalEdgeStyle;rounded=0;orthogonalLoop=1;jettySize=auto;html=1;strokeWidth=2;dashed=1;strokeColor=#F44D06;" edge="1" parent="1" source="zqi7WxUzwIYgTqNgiQfA-68" target="zqi7WxUzwIYgTqNgiQfA-91">
          <mxGeometry relative="1" as="geometry">
            <Array as="points">
              <mxPoint x="797" y="660" />
              <mxPoint x="700" y="660" />
              <mxPoint x="700" y="916" />
            </Array>
          </mxGeometry>
        </mxCell>
        <mxCell id="zqi7WxUzwIYgTqNgiQfA-68" value="&lt;div style=&quot;text-align: left;&quot;&gt;&lt;font face=&quot;Open Sans, sans-serif&quot; color=&quot;#555555&quot;&gt;&lt;span style=&quot;font-size: 13px;&quot;&gt;MercedesBenzSubwayFactory&lt;/span&gt;&lt;/font&gt;&lt;br&gt;&lt;/div&gt;" style="swimlane;fontStyle=1;align=center;verticalAlign=top;childLayout=stackLayout;horizontal=1;startSize=26;horizontalStack=0;resizeParent=1;resizeParentMax=0;resizeLast=0;collapsible=1;marginBottom=0;whiteSpace=wrap;html=1;fillColor=#fff2cc;strokeColor=#F44D06;labelBackgroundColor=none;strokeWidth=2;" vertex="1" parent="1">
          <mxGeometry x="697.5" y="540" width="200" height="52" as="geometry" />
        </mxCell>
        <mxCell id="zqi7WxUzwIYgTqNgiQfA-69" value="+ createTransport: Transport" style="text;align=left;verticalAlign=top;spacingLeft=4;spacingRight=4;overflow=hidden;rotatable=0;points=[[0,0.5],[1,0.5]];portConstraint=eastwest;whiteSpace=wrap;html=1;fillColor=#fff2cc;strokeColor=#F44D06;labelBackgroundColor=none;strokeWidth=2;" vertex="1" parent="zqi7WxUzwIYgTqNgiQfA-68">
          <mxGeometry y="26" width="200" height="26" as="geometry" />
        </mxCell>
        <mxCell id="zqi7WxUzwIYgTqNgiQfA-101" style="edgeStyle=orthogonalEdgeStyle;rounded=0;orthogonalLoop=1;jettySize=auto;html=1;strokeWidth=2;dashed=1;strokeColor=#F44D06;" edge="1" parent="1" source="zqi7WxUzwIYgTqNgiQfA-70" target="zqi7WxUzwIYgTqNgiQfA-89">
          <mxGeometry relative="1" as="geometry">
            <Array as="points">
              <mxPoint x="1180" y="566" />
              <mxPoint x="1180" y="836" />
            </Array>
          </mxGeometry>
        </mxCell>
        <mxCell id="zqi7WxUzwIYgTqNgiQfA-70" value="&lt;div style=&quot;text-align: left;&quot;&gt;&lt;span style=&quot;background-color: initial; font-size: 13px;&quot;&gt;&lt;font style=&quot;&quot; face=&quot;Open Sans, sans-serif&quot; color=&quot;#555555&quot;&gt;SiemensBusFactory&lt;/font&gt;&lt;/span&gt;&lt;/div&gt;" style="swimlane;fontStyle=1;align=center;verticalAlign=top;childLayout=stackLayout;horizontal=1;startSize=26;horizontalStack=0;resizeParent=1;resizeParentMax=0;resizeLast=0;collapsible=1;marginBottom=0;whiteSpace=wrap;html=1;fillColor=#fff2cc;strokeColor=#F44D06;labelBackgroundColor=none;strokeWidth=2;" vertex="1" parent="1">
          <mxGeometry x="970" y="540" width="190" height="52" as="geometry" />
        </mxCell>
        <mxCell id="zqi7WxUzwIYgTqNgiQfA-71" value="+ createTransport: Transport" style="text;align=left;verticalAlign=top;spacingLeft=4;spacingRight=4;overflow=hidden;rotatable=0;points=[[0,0.5],[1,0.5]];portConstraint=eastwest;whiteSpace=wrap;html=1;fillColor=#fff2cc;strokeColor=#F44D06;labelBackgroundColor=none;strokeWidth=2;" vertex="1" parent="zqi7WxUzwIYgTqNgiQfA-70">
          <mxGeometry y="26" width="190" height="26" as="geometry" />
        </mxCell>
        <mxCell id="zqi7WxUzwIYgTqNgiQfA-85" value="Transport" style="swimlane;fontStyle=1;align=center;verticalAlign=top;childLayout=stackLayout;horizontal=1;startSize=26;horizontalStack=0;resizeParent=1;resizeParentMax=0;resizeLast=0;collapsible=1;marginBottom=0;whiteSpace=wrap;html=1;fillColor=#fff2cc;strokeColor=#F44D06;strokeWidth=2;" vertex="1" parent="1">
          <mxGeometry x="845" y="710" width="160" height="52" as="geometry" />
        </mxCell>
        <mxCell id="zqi7WxUzwIYgTqNgiQfA-86" value="+ showInfo: void" style="text;strokeColor=#F44D06;fillColor=#fff2cc;align=left;verticalAlign=top;spacingLeft=4;spacingRight=4;overflow=hidden;rotatable=0;points=[[0,0.5],[1,0.5]];portConstraint=eastwest;whiteSpace=wrap;html=1;strokeWidth=2;" vertex="1" parent="zqi7WxUzwIYgTqNgiQfA-85">
          <mxGeometry y="26" width="160" height="26" as="geometry" />
        </mxCell>
        <mxCell id="zqi7WxUzwIYgTqNgiQfA-95" style="edgeStyle=orthogonalEdgeStyle;rounded=0;orthogonalLoop=1;jettySize=auto;html=1;strokeWidth=2;strokeColor=#F44D06;" edge="1" parent="1" source="zqi7WxUzwIYgTqNgiQfA-87" target="zqi7WxUzwIYgTqNgiQfA-85">
          <mxGeometry relative="1" as="geometry" />
        </mxCell>
        <mxCell id="zqi7WxUzwIYgTqNgiQfA-87" value="MercedesBus" style="swimlane;fontStyle=1;align=center;verticalAlign=top;childLayout=stackLayout;horizontal=1;startSize=26;horizontalStack=0;resizeParent=1;resizeParentMax=0;resizeLast=0;collapsible=1;marginBottom=0;whiteSpace=wrap;html=1;fillColor=#fff2cc;strokeColor=#F44D06;strokeWidth=2;" vertex="1" parent="1">
          <mxGeometry x="755" y="810" width="160" height="52" as="geometry" />
        </mxCell>
        <mxCell id="zqi7WxUzwIYgTqNgiQfA-88" value="+ showInfo: void" style="text;strokeColor=#F44D06;fillColor=#fff2cc;align=left;verticalAlign=top;spacingLeft=4;spacingRight=4;overflow=hidden;rotatable=0;points=[[0,0.5],[1,0.5]];portConstraint=eastwest;whiteSpace=wrap;html=1;strokeWidth=2;" vertex="1" parent="zqi7WxUzwIYgTqNgiQfA-87">
          <mxGeometry y="26" width="160" height="26" as="geometry" />
        </mxCell>
        <mxCell id="zqi7WxUzwIYgTqNgiQfA-96" style="edgeStyle=orthogonalEdgeStyle;rounded=0;orthogonalLoop=1;jettySize=auto;html=1;strokeWidth=2;strokeColor=#F44D06;" edge="1" parent="1" source="zqi7WxUzwIYgTqNgiQfA-89" target="zqi7WxUzwIYgTqNgiQfA-85">
          <mxGeometry relative="1" as="geometry" />
        </mxCell>
        <mxCell id="zqi7WxUzwIYgTqNgiQfA-89" value="SiemensBus" style="swimlane;fontStyle=1;align=center;verticalAlign=top;childLayout=stackLayout;horizontal=1;startSize=26;horizontalStack=0;resizeParent=1;resizeParentMax=0;resizeLast=0;collapsible=1;marginBottom=0;whiteSpace=wrap;html=1;fillColor=#fff2cc;strokeColor=#F44D06;strokeWidth=2;" vertex="1" parent="1">
          <mxGeometry x="945" y="810" width="160" height="52" as="geometry" />
        </mxCell>
        <mxCell id="zqi7WxUzwIYgTqNgiQfA-90" value="+ showInfo: void" style="text;strokeColor=#F44D06;fillColor=#fff2cc;align=left;verticalAlign=top;spacingLeft=4;spacingRight=4;overflow=hidden;rotatable=0;points=[[0,0.5],[1,0.5]];portConstraint=eastwest;whiteSpace=wrap;html=1;strokeWidth=2;" vertex="1" parent="zqi7WxUzwIYgTqNgiQfA-89">
          <mxGeometry y="26" width="160" height="26" as="geometry" />
        </mxCell>
        <mxCell id="zqi7WxUzwIYgTqNgiQfA-97" style="edgeStyle=orthogonalEdgeStyle;rounded=0;orthogonalLoop=1;jettySize=auto;html=1;strokeWidth=2;strokeColor=#F44D06;" edge="1" parent="1" source="zqi7WxUzwIYgTqNgiQfA-91" target="zqi7WxUzwIYgTqNgiQfA-85">
          <mxGeometry relative="1" as="geometry">
            <Array as="points">
              <mxPoint x="835" y="880" />
              <mxPoint x="925" y="880" />
            </Array>
          </mxGeometry>
        </mxCell>
        <mxCell id="zqi7WxUzwIYgTqNgiQfA-91" value="MercedesSubway" style="swimlane;fontStyle=1;align=center;verticalAlign=top;childLayout=stackLayout;horizontal=1;startSize=26;horizontalStack=0;resizeParent=1;resizeParentMax=0;resizeLast=0;collapsible=1;marginBottom=0;whiteSpace=wrap;html=1;fillColor=#fff2cc;strokeColor=#F44D06;strokeWidth=2;" vertex="1" parent="1">
          <mxGeometry x="755" y="890" width="160" height="52" as="geometry" />
        </mxCell>
        <mxCell id="zqi7WxUzwIYgTqNgiQfA-92" value="+ showInfo: void" style="text;strokeColor=#F44D06;fillColor=#fff2cc;align=left;verticalAlign=top;spacingLeft=4;spacingRight=4;overflow=hidden;rotatable=0;points=[[0,0.5],[1,0.5]];portConstraint=eastwest;whiteSpace=wrap;html=1;strokeWidth=2;" vertex="1" parent="zqi7WxUzwIYgTqNgiQfA-91">
          <mxGeometry y="26" width="160" height="26" as="geometry" />
        </mxCell>
        <mxCell id="zqi7WxUzwIYgTqNgiQfA-98" style="edgeStyle=orthogonalEdgeStyle;rounded=0;orthogonalLoop=1;jettySize=auto;html=1;strokeWidth=2;strokeColor=#F44D06;" edge="1" parent="1" source="zqi7WxUzwIYgTqNgiQfA-93" target="zqi7WxUzwIYgTqNgiQfA-85">
          <mxGeometry relative="1" as="geometry">
            <Array as="points">
              <mxPoint x="1025" y="880" />
              <mxPoint x="925" y="880" />
            </Array>
          </mxGeometry>
        </mxCell>
        <mxCell id="zqi7WxUzwIYgTqNgiQfA-93" value="SiemensSubway" style="swimlane;fontStyle=1;align=center;verticalAlign=top;childLayout=stackLayout;horizontal=1;startSize=26;horizontalStack=0;resizeParent=1;resizeParentMax=0;resizeLast=0;collapsible=1;marginBottom=0;whiteSpace=wrap;html=1;fillColor=#fff2cc;strokeColor=#F44D06;strokeWidth=2;" vertex="1" parent="1">
          <mxGeometry x="945" y="890" width="160" height="52" as="geometry" />
        </mxCell>
        <mxCell id="zqi7WxUzwIYgTqNgiQfA-94" value="+ showInfo: void" style="text;strokeColor=#F44D06;fillColor=#fff2cc;align=left;verticalAlign=top;spacingLeft=4;spacingRight=4;overflow=hidden;rotatable=0;points=[[0,0.5],[1,0.5]];portConstraint=eastwest;whiteSpace=wrap;html=1;strokeWidth=2;" vertex="1" parent="zqi7WxUzwIYgTqNgiQfA-93">
          <mxGeometry y="26" width="160" height="26" as="geometry" />
        </mxCell>
        <mxCell id="zqi7WxUzwIYgTqNgiQfA-104" style="edgeStyle=orthogonalEdgeStyle;rounded=0;orthogonalLoop=1;jettySize=auto;html=1;strokeWidth=2;strokeColor=#F44D06;" edge="1" parent="1" source="zqi7WxUzwIYgTqNgiQfA-103" target="zqi7WxUzwIYgTqNgiQfA-6">
          <mxGeometry relative="1" as="geometry">
            <Array as="points">
              <mxPoint x="185" y="509" />
            </Array>
          </mxGeometry>
        </mxCell>
        <mxCell id="zqi7WxUzwIYgTqNgiQfA-107" value="use" style="edgeLabel;html=1;align=center;verticalAlign=middle;resizable=0;points=[];" vertex="1" connectable="0" parent="zqi7WxUzwIYgTqNgiQfA-104">
          <mxGeometry x="-0.122" y="-2" relative="1" as="geometry">
            <mxPoint as="offset" />
          </mxGeometry>
        </mxCell>
        <mxCell id="zqi7WxUzwIYgTqNgiQfA-105" style="edgeStyle=orthogonalEdgeStyle;rounded=0;orthogonalLoop=1;jettySize=auto;html=1;strokeWidth=2;strokeColor=#F44D06;" edge="1" parent="1" source="zqi7WxUzwIYgTqNgiQfA-103" target="zqi7WxUzwIYgTqNgiQfA-10">
          <mxGeometry relative="1" as="geometry">
            <Array as="points">
              <mxPoint x="580" y="240" />
            </Array>
          </mxGeometry>
        </mxCell>
        <mxCell id="zqi7WxUzwIYgTqNgiQfA-106" value="use" style="edgeLabel;html=1;align=center;verticalAlign=middle;resizable=0;points=[];" vertex="1" connectable="0" parent="zqi7WxUzwIYgTqNgiQfA-105">
          <mxGeometry x="0.3999" y="-3" relative="1" as="geometry">
            <mxPoint as="offset" />
          </mxGeometry>
        </mxCell>
        <mxCell id="zqi7WxUzwIYgTqNgiQfA-103" value="Actor" style="shape=umlActor;verticalLabelPosition=bottom;verticalAlign=top;html=1;" vertex="1" parent="1">
          <mxGeometry x="170" y="210" width="30" height="60" as="geometry" />
        </mxCell>
      </root>
    </mxGraphModel>
  </diagram>
</mxfile>
